<svg width="60" height="60" viewBox="0 0 60 60" fill="none" xmlns="http://www.w3.org/2000/svg">
<circle cx="30" cy="30" r="30" fill="#5BC780" fill-opacity="0.2"/>
<path d="M42.5 35.75V39.5H17.5V35.75C17.5 35.0625 18.0625 34.5 18.75 34.5H41.25C41.9375 34.5 42.5 35.0625 42.5 35.75Z" fill="#5BC780" stroke="#5BC780" stroke-width="1.5" stroke-miterlimit="10" stroke-linecap="round" stroke-linejoin="round"/>
<path d="M23.75 25.75H21.25V34.5H23.75V25.75Z" fill="#5BC780"/>
<path d="M28.75 25.75H26.25V34.5H28.75V25.75Z" fill="#5BC780"/>
<path d="M33.75 25.75H31.25V34.5H33.75V25.75Z" fill="#5BC780"/>
<path d="M38.75 25.75H36.25V34.5H38.75V25.75Z" fill="#5BC780"/>
<path d="M43.75 40.4375H16.25C15.7375 40.4375 15.3125 40.0125 15.3125 39.5C15.3125 38.9875 15.7375 38.5625 16.25 38.5625H43.75C44.2625 38.5625 44.6875 38.9875 44.6875 39.5C44.6875 40.0125 44.2625 40.4375 43.75 40.4375Z" fill="#5BC780"/>
<path d="M41.7125 19.1875L30.4625 14.6875C30.2125 14.5875 29.7875 14.5875 29.5375 14.6875L18.2875 19.1875C17.85 19.3625 17.5 19.875 17.5 20.35V24.5C17.5 25.1875 18.0625 25.75 18.75 25.75H41.25C41.9375 25.75 42.5 25.1875 42.5 24.5V20.35C42.5 19.875 42.15 19.3625 41.7125 19.1875ZM30 22.625C28.9625 22.625 28.125 21.7875 28.125 20.75C28.125 19.7125 28.9625 18.875 30 18.875C31.0375 18.875 31.875 19.7125 31.875 20.75C31.875 21.7875 31.0375 22.625 30 22.625Z" fill="#5BC780"/>
</svg>
