<svg width="100" height="100" viewBox="0 0 100 100" fill="none" xmlns="http://www.w3.org/2000/svg">
<path opacity="0.4" d="M90.6663 66.3333L63.9997 18.3333C60.4163 11.875 55.458 8.33334 49.9997 8.33334C44.5413 8.33334 39.583 11.875 35.9997 18.3333L9.333 66.3333C5.958 72.4583 5.583 78.3333 8.29133 82.9583C10.9997 87.5833 16.333 90.125 23.333 90.125H76.6663C83.6663 90.125 88.9997 87.5833 91.708 82.9583C94.4163 78.3333 94.0413 72.4167 90.6663 66.3333Z" fill="#F18E8E"/>
<path d="M50 61.4583C48.2917 61.4583 46.875 60.0417 46.875 58.3333V37.5C46.875 35.7917 48.2917 34.375 50 34.375C51.7083 34.375 53.125 35.7917 53.125 37.5V58.3333C53.125 60.0417 51.7083 61.4583 50 61.4583Z" fill="#F18E8E"/>
<path d="M50.0007 75C49.7507 75 49.459 74.9583 49.1673 74.9167C48.9173 74.875 48.6673 74.7917 48.4173 74.6667C48.1673 74.5833 47.9173 74.4583 47.6673 74.2917C47.459 74.125 47.2507 73.9583 47.0423 73.7917C46.2923 73 45.834 71.9167 45.834 70.8333C45.834 69.75 46.2923 68.6667 47.0423 67.875C47.2507 67.7083 47.459 67.5417 47.6673 67.375C47.9173 67.2083 48.1673 67.0833 48.4173 67C48.6673 66.875 48.9173 66.7917 49.1673 66.75C49.709 66.625 50.2923 66.625 50.7923 66.75C51.084 66.7917 51.334 66.875 51.584 67C51.834 67.0833 52.084 67.2083 52.334 67.375C52.5423 67.5417 52.7507 67.7083 52.959 67.875C53.709 68.6667 54.1673 69.75 54.1673 70.8333C54.1673 71.9167 53.709 73 52.959 73.7917C52.7507 73.9583 52.5423 74.125 52.334 74.2917C52.084 74.4583 51.834 74.5833 51.584 74.6667C51.334 74.7917 51.084 74.875 50.7923 74.9167C50.5423 74.9583 50.2507 75 50.0007 75Z" fill="#F18E8E"/>
</svg>
