<svg width="20" height="20" viewBox="0 0 20 20" fill="none" xmlns="http://www.w3.org/2000/svg">
<path d="M17.5 18.3334H2.5C2.15833 18.3334 1.875 18.05 1.875 17.7084C1.875 17.3667 2.15833 17.0834 2.5 17.0834H17.5C17.8417 17.0834 18.125 17.3667 18.125 17.7084C18.125 18.05 17.8417 18.3334 17.5 18.3334Z" fill="#5B5FC7"/>
<path d="M15.8505 2.90005C14.2338 1.28338 12.6505 1.24172 10.9921 2.90005L9.9838 3.90838C9.90047 3.99172 9.86714 4.12505 9.90047 4.24172C10.5338 6.45005 12.3005 8.21672 14.5088 8.85005C14.5421 8.85838 14.5755 8.86672 14.6088 8.86672C14.7005 8.86672 14.7838 8.83338 14.8505 8.76672L15.8505 7.75838C16.6755 6.94172 17.0755 6.15005 17.0755 5.35005C17.0838 4.52505 16.6838 3.72505 15.8505 2.90005Z" fill="#5B5FC7"/>
<path d="M13.0079 9.60829C12.7663 9.49163 12.5329 9.37496 12.3079 9.24163C12.1246 9.13329 11.9496 9.01663 11.7746 8.89163C11.6329 8.79996 11.4663 8.66663 11.3079 8.53329C11.2913 8.52496 11.2329 8.47496 11.1663 8.40829C10.8913 8.17496 10.5829 7.87496 10.3079 7.54163C10.2829 7.52496 10.2413 7.46663 10.1829 7.39163C10.0996 7.29163 9.95795 7.12496 9.83295 6.93329C9.73295 6.80829 9.61628 6.62496 9.50795 6.44163C9.37461 6.21663 9.25795 5.99163 9.14128 5.75829C8.98832 5.43051 8.5581 5.33314 8.30233 5.58891L3.61628 10.275C3.50795 10.3833 3.40795 10.5916 3.38295 10.7333L2.93295 13.925C2.84961 14.4916 3.00795 15.025 3.35795 15.3833C3.65795 15.675 4.07461 15.8333 4.52461 15.8333C4.62461 15.8333 4.72461 15.825 4.82461 15.8083L8.02461 15.3583C8.17461 15.3333 8.38295 15.2333 8.48295 15.125L13.1767 10.4312C13.4274 10.1805 13.3332 9.74924 13.0079 9.60829Z" fill="#5B5FC7"/>
</svg>
