<svg width="25" height="25" viewBox="0 0 25 25" fill="none" xmlns="http://www.w3.org/2000/svg">
<path d="M22.1351 9.53127C19.7288 5.75002 16.208 3.57294 12.4997 3.57294C10.6455 3.57294 8.84342 4.1146 7.19759 5.12502C5.55176 6.14585 4.07259 7.63544 2.86426 9.53127C1.82259 11.1667 1.82259 13.8229 2.86426 15.4584C5.27051 19.25 8.79134 21.4167 12.4997 21.4167C14.3538 21.4167 16.1559 20.875 17.8018 19.8646C19.4476 18.8438 20.9268 17.3542 22.1351 15.4584C23.1768 13.8334 23.1768 11.1667 22.1351 9.53127ZM12.4997 16.7084C10.1663 16.7084 8.29134 14.8229 8.29134 12.5C8.29134 10.1771 10.1663 8.29169 12.4997 8.29169C14.833 8.29169 16.708 10.1771 16.708 12.5C16.708 14.8229 14.833 16.7084 12.4997 16.7084Z" fill="#5A5A5A"/>
<path d="M12.5 9.52081C10.8646 9.52081 9.53125 10.8541 9.53125 12.5C9.53125 14.1354 10.8646 15.4687 12.5 15.4687C14.1354 15.4687 15.4792 14.1354 15.4792 12.5C15.4792 10.8646 14.1354 9.52081 12.5 9.52081Z" fill="#5A5A5A"/>
</svg>
