<svg width="44" height="44" viewBox="0 0 44 44" fill="none" xmlns="http://www.w3.org/2000/svg">
<circle cx="22" cy="22" r="22" fill="#FCD116" fill-opacity="0.2"/>
<path d="M31.1392 13.6858C30.4792 12.9342 29.4983 12.4667 28.4167 12.4667C27.39 12.4667 26.455 12.8883 25.7858 13.5758C25.4008 13.97 25.1075 14.4467 24.9333 14.9783C24.8142 15.345 24.75 15.73 24.75 16.1333C24.75 16.8208 24.9425 17.4717 25.2817 18.0217C25.465 18.3333 25.7033 18.6175 25.9783 18.8558C26.62 19.4425 27.4725 19.8 28.4167 19.8C28.82 19.8 29.205 19.7358 29.5625 19.6075C30.4058 19.3417 31.1117 18.7642 31.5517 18.0217C31.7442 17.71 31.8908 17.3525 31.9733 16.9858C32.0467 16.7108 32.0833 16.4267 32.0833 16.1333C32.0833 15.1983 31.7258 14.3367 31.1392 13.6858ZM29.7825 16.8025H29.1042V17.5175C29.1042 17.8933 28.7925 18.205 28.4167 18.205C28.0408 18.205 27.7292 17.8933 27.7292 17.5175V16.8025H27.0508C26.675 16.8025 26.3633 16.4908 26.3633 16.115C26.3633 15.7392 26.675 15.4275 27.0508 15.4275H27.7292V14.7767C27.7292 14.4008 28.0408 14.0892 28.4167 14.0892C28.7925 14.0892 29.1042 14.4008 29.1042 14.7767V15.4275H29.7825C30.1583 15.4275 30.47 15.7392 30.47 16.115C30.47 16.4908 30.1675 16.8025 29.7825 16.8025Z" fill="#FCD116"/>
<path d="M31.1663 22.5501C31.1663 21.3493 30.9372 20.1943 30.5063 19.1401C30.2222 19.3418 29.9013 19.4976 29.5622 19.6076C29.4613 19.6443 29.3605 19.6718 29.2505 19.6993C29.5988 20.5793 29.7913 21.5418 29.7913 22.5501C29.7913 24.6768 28.9297 26.6109 27.5363 28.0226C27.2705 27.6834 26.9313 27.3718 26.528 27.1059C24.0438 25.4376 19.9738 25.4376 17.4713 27.1059C17.068 27.3718 16.738 27.6834 16.463 28.0226C15.0697 26.6109 14.208 24.6768 14.208 22.5501C14.208 18.2509 17.7005 14.7584 21.9997 14.7584C22.9988 14.7584 23.9613 14.9509 24.8413 15.2993C24.8688 15.1893 24.8963 15.0884 24.933 14.9784C25.043 14.6393 25.1988 14.3276 25.4097 14.0434C24.3555 13.6126 23.2005 13.3834 21.9997 13.3834C16.9488 13.3834 12.833 17.4993 12.833 22.5501C12.833 25.2084 13.9788 27.6009 15.7938 29.2784C15.7938 29.2876 15.7938 29.2876 15.7847 29.2968C15.8763 29.3884 15.9863 29.4618 16.078 29.5443C16.133 29.5901 16.1788 29.6359 16.2338 29.6726C16.3988 29.8101 16.5822 29.9384 16.7563 30.0668C16.8205 30.1126 16.8755 30.1493 16.9397 30.1951C17.1138 30.3143 17.2972 30.4243 17.4897 30.5251C17.5538 30.5618 17.6272 30.6076 17.6913 30.6443C17.8747 30.7451 18.0672 30.8368 18.2688 30.9193C18.3422 30.9559 18.4155 30.9926 18.4888 31.0201C18.6905 31.1026 18.8922 31.1759 19.0938 31.2401C19.1672 31.2676 19.2405 31.2951 19.3138 31.3134C19.5338 31.3776 19.7538 31.4326 19.9738 31.4876C20.038 31.5059 20.1022 31.5243 20.1755 31.5334C20.4322 31.5884 20.6888 31.6251 20.9547 31.6526C20.9913 31.6526 21.028 31.6618 21.0647 31.6709C21.3763 31.6984 21.688 31.7168 21.9997 31.7168C22.3113 31.7168 22.623 31.6984 22.9255 31.6709C22.9622 31.6709 22.9988 31.6618 23.0355 31.6526C23.3013 31.6251 23.558 31.5884 23.8147 31.5334C23.8788 31.5243 23.943 31.4968 24.0163 31.4876C24.2363 31.4326 24.4655 31.3868 24.6763 31.3134C24.7497 31.2859 24.823 31.2584 24.8963 31.2401C25.098 31.1668 25.3088 31.1026 25.5013 31.0201C25.5747 30.9926 25.648 30.9559 25.7213 30.9193C25.9138 30.8368 26.1063 30.7451 26.2988 30.6443C26.3722 30.6076 26.4363 30.5618 26.5005 30.5251C26.6838 30.4151 26.8672 30.3143 27.0505 30.1951C27.1147 30.1584 27.1697 30.1126 27.2338 30.0668C27.4172 29.9384 27.5913 29.8101 27.7563 29.6726C27.8113 29.6268 27.8572 29.5809 27.9122 29.5443C28.013 29.4618 28.1138 29.3793 28.2055 29.2968C28.2055 29.2876 28.2055 29.2876 28.1963 29.2784C30.0205 27.6009 31.1663 25.2084 31.1663 22.5501Z" fill="#FCD116"/>
<path d="M22 17.9026C20.1025 17.9026 18.5625 19.4426 18.5625 21.3401C18.5625 23.2009 20.02 24.7134 21.9542 24.7684C21.9817 24.7684 22.0183 24.7684 22.0367 24.7684C22.055 24.7684 22.0825 24.7684 22.1008 24.7684C22.11 24.7684 22.1192 24.7684 22.1192 24.7684C23.9708 24.7043 25.4283 23.2009 25.4375 21.3401C25.4375 19.4426 23.8975 17.9026 22 17.9026Z" fill="#FCD116"/>
</svg>
