<svg width="44" height="44" viewBox="0 0 44 44" fill="none" xmlns="http://www.w3.org/2000/svg">
<circle cx="22" cy="22" r="22" fill="#5B5FC7" fill-opacity="0.2"/>
<path d="M31.1663 26.2167V28.9667H12.833V26.2167C12.833 25.7125 13.2455 25.3 13.7497 25.3H30.2497C30.7538 25.3 31.1663 25.7125 31.1663 26.2167Z" fill="#5B5FC7" stroke="#5B5FC7" stroke-width="1.5" stroke-miterlimit="10" stroke-linecap="round" stroke-linejoin="round"/>
<path d="M17.4163 18.8834H15.583V25.3001H17.4163V18.8834Z" fill="#5B5FC7"/>
<path d="M21.0833 18.8834H19.25V25.3001H21.0833V18.8834Z" fill="#5B5FC7"/>
<path d="M24.7503 18.8834H22.917V25.3001H24.7503V18.8834Z" fill="#5B5FC7"/>
<path d="M28.4163 18.8834H26.583V25.3001H28.4163V18.8834Z" fill="#5B5FC7"/>
<path d="M32.0837 29.6542H11.917C11.5412 29.6542 11.2295 29.3425 11.2295 28.9667C11.2295 28.5908 11.5412 28.2792 11.917 28.2792H32.0837C32.4595 28.2792 32.7712 28.5908 32.7712 28.9667C32.7712 29.3425 32.4595 29.6542 32.0837 29.6542Z" fill="#5B5FC7"/>
<path d="M30.5888 14.0709L22.3388 10.7709C22.1555 10.6976 21.8438 10.6976 21.6605 10.7709L13.4105 14.0709C13.0897 14.1993 12.833 14.5751 12.833 14.9234V17.9668C12.833 18.4709 13.2455 18.8834 13.7497 18.8834H30.2497C30.7538 18.8834 31.1663 18.4709 31.1663 17.9668V14.9234C31.1663 14.5751 30.9097 14.1993 30.5888 14.0709ZM21.9997 16.5918C21.2388 16.5918 20.6247 15.9776 20.6247 15.2168C20.6247 14.4559 21.2388 13.8418 21.9997 13.8418C22.7605 13.8418 23.3747 14.4559 23.3747 15.2168C23.3747 15.9776 22.7605 16.5918 21.9997 16.5918Z" fill="#5B5FC7"/>
</svg>
