<svg width="44" height="44" viewBox="0 0 44 44" fill="none" xmlns="http://www.w3.org/2000/svg">
<circle cx="22" cy="22" r="22" fill="#F18E8E" fill-opacity="0.2"/>
<path d="M27.5084 19.4425C27.4442 19.4333 27.3801 19.4333 27.3159 19.4425C25.8951 19.3967 24.7676 18.2325 24.7676 16.8025C24.7676 15.345 25.9501 14.1533 27.4167 14.1533C28.8742 14.1533 30.0659 15.3358 30.0659 16.8025C30.0567 18.2325 28.9292 19.3967 27.5084 19.4425Z" fill="#F18E8E"/>
<path d="M30.4971 25.7949C29.4704 26.4824 28.0312 26.7391 26.7021 26.5649C27.0504 25.8133 27.2337 24.9791 27.2429 24.0991C27.2429 23.1825 27.0412 22.3116 26.6562 21.5508C28.0129 21.3674 29.4521 21.6241 30.4879 22.3116C31.9363 23.2649 31.9363 24.8324 30.4971 25.7949Z" fill="#F18E8E"/>
<path d="M17.3433 19.4425C17.4074 19.4333 17.4716 19.4333 17.5358 19.4425C18.9566 19.3967 20.0841 18.2325 20.0841 16.8025C20.0841 15.3358 18.9016 14.1533 17.4349 14.1533C15.9774 14.1533 14.7949 15.3358 14.7949 16.8025C14.7949 18.2325 15.9224 19.3967 17.3433 19.4425Z" fill="#F18E8E"/>
<path d="M17.444 24.0992C17.444 24.9883 17.6365 25.8317 17.9848 26.5925C16.6923 26.73 15.3448 26.455 14.3548 25.8042C12.9065 24.8417 12.9065 23.2742 14.3548 22.3117C15.3356 21.6517 16.7198 21.3858 18.0215 21.5325C17.6456 22.3025 17.444 23.1733 17.444 24.0992Z" fill="#F18E8E"/>
<path d="M22.5498 26.8674C22.4765 26.8583 22.394 26.8583 22.3115 26.8674C20.6248 26.8124 19.2773 25.4283 19.2773 23.7233C19.2865 21.9816 20.689 20.5699 22.4398 20.5699C24.1815 20.5699 25.5932 21.9816 25.5932 23.7233C25.584 25.4283 24.2457 26.8124 22.5498 26.8674Z" fill="#F18E8E"/>
<path d="M19.5704 28.765C18.1862 29.6908 18.1862 31.2125 19.5704 32.1292C21.147 33.1833 23.732 33.1833 25.3087 32.1292C26.6929 31.2033 26.6929 29.6817 25.3087 28.765C23.7412 27.7108 21.1562 27.7108 19.5704 28.765Z" fill="#F18E8E"/>
</svg>
