<svg width="175" height="75" viewBox="0 0 175 75" fill="none" xmlns="http://www.w3.org/2000/svg">
<path d="M26.4948 17.8619V44.4178C26.4948 48.5175 26.4948 61 13.2168 61H4.28322V54.3916H13.2168C16.3374 54.3916 19.8864 54.3916 19.8864 44.4178V17.8619H26.4948ZM56.4118 18.1678L69.5674 61H62.7142L52.3121 27.3462L41.91 61H35.0569L48.2125 18.1678H56.4118ZM84.7484 18.1678V61H78.14V18.1678H84.7484ZM99.9261 18.1678V47.8444H93.3177V18.1678H99.9261ZM93.3177 54.3916H122.566V61H93.3177V54.3916ZM147.713 18.1678H155.545L140.492 42.215V61H133.945V42.215L118.893 18.1678H126.725L137.188 34.9948L147.713 18.1678Z" fill="#5A5A5A"/>
<path d="M164.127 58.1241C164.127 56.5944 165.473 55.3094 167.125 55.3094C168.777 55.3094 170.124 56.5944 170.124 58.1241C170.124 59.715 168.777 61 167.125 61C165.473 61 164.127 59.715 164.127 58.1241Z" fill="#8B8CC7"/>
<path d="M52.0109 26.9231L64.1989 61.3418H39.823L52.0109 26.9231Z" fill="#5B5FC7"/>
</svg>
