<svg width="24" height="24" viewBox="0 0 24 24" fill="none" xmlns="http://www.w3.org/2000/svg">
<path d="M19.3399 14.4899L18.3399 12.8299C18.1299 12.4599 17.9399 11.7599 17.9399 11.3499V8.81988C17.9399 6.46988 16.5599 4.43988 14.5699 3.48988C14.0499 2.56988 13.0899 1.99988 11.9899 1.99988C10.8999 1.99988 9.91994 2.58988 9.39994 3.51988C7.44994 4.48988 6.09994 6.49988 6.09994 8.81988V11.3499C6.09994 11.7599 5.90994 12.4599 5.69994 12.8199L4.68994 14.4899C4.28994 15.1599 4.19994 15.8999 4.44994 16.5799C4.68994 17.2499 5.25994 17.7699 5.99994 18.0199C7.93994 18.6799 9.97994 18.9999 12.0199 18.9999C14.0599 18.9999 16.0999 18.6799 18.0399 18.0299C18.7399 17.7999 19.2799 17.2699 19.5399 16.5799C19.7999 15.8899 19.7299 15.1299 19.3399 14.4899Z" fill="#5B5FC7"/>
<path d="M14.8287 20.01C14.4087 21.17 13.2987 22 11.9987 22C11.2087 22 10.4287 21.68 9.87871 21.11C9.55871 20.81 9.31871 20.41 9.17871 20C9.30871 20.02 9.43871 20.03 9.57871 20.05C9.80871 20.08 10.0487 20.11 10.2887 20.13C10.8587 20.18 11.4387 20.21 12.0187 20.21C12.5887 20.21 13.1587 20.18 13.7187 20.13C13.9287 20.11 14.1387 20.1 14.3387 20.07C14.4987 20.05 14.6587 20.03 14.8287 20.01Z" fill="#5B5FC7"/>
</svg>
