<svg width="134" height="58" viewBox="0 0 134 58" fill="none" xmlns="http://www.w3.org/2000/svg">
<path d="M20.2874 13.9685V34.3028C20.2874 37.442 20.2874 47 10.1203 47H3.27972V41.9399H10.1203C12.5098 41.9399 15.2273 41.9399 15.2273 34.3028V13.9685H20.2874ZM43.1953 14.2028L53.2687 47H48.0212L40.0561 21.2308L32.0911 47H26.8436L36.917 14.2028H43.1953ZM64.8931 14.2028V47H59.8329V14.2028H64.8931ZM76.5149 14.2028V36.9266H71.4547V14.2028H76.5149ZM71.4547 41.9399H93.8505V47H71.4547V41.9399ZM113.106 14.2028H119.103L107.577 32.6161V47H102.564V32.6161L91.0379 14.2028H97.0351L105.047 27.0874L113.106 14.2028Z" fill="white"/>
<path d="M125.674 44.7979C125.674 43.6266 126.705 42.6427 127.97 42.6427C129.235 42.6427 130.266 43.6266 130.266 44.7979C130.266 46.0161 129.235 47 127.97 47C126.705 47 125.674 46.0161 125.674 44.7979Z" fill="#8B8CC7"/>
<path d="M39.8251 21.6154L49.1575 47.9703H30.4926L39.8251 21.6154Z" fill="#5B5FC7"/>
</svg>
