<svg width="25" height="25" viewBox="0 0 25 25" fill="none" xmlns="http://www.w3.org/2000/svg">
<path d="M17.708 3.64581H7.29134C4.16634 3.64581 2.08301 5.20831 2.08301 8.85415V16.1458C2.08301 19.7916 4.16634 21.3541 7.29134 21.3541H17.708C20.833 21.3541 22.9163 19.7916 22.9163 16.1458V8.85415C22.9163 5.20831 20.833 3.64581 17.708 3.64581ZM18.1976 9.98956L14.9372 12.5937C14.2497 13.1458 13.3747 13.4166 12.4997 13.4166C11.6247 13.4166 10.7393 13.1458 10.0622 12.5937L6.80176 9.98956C6.46842 9.71873 6.41634 9.21873 6.67676 8.8854C6.94759 8.55206 7.43717 8.48956 7.77051 8.7604L11.0309 11.3646C11.8226 12 13.1663 12 13.958 11.3646L17.2184 8.7604C17.5518 8.48956 18.0518 8.54165 18.3122 8.8854C18.583 9.21873 18.5309 9.71873 18.1976 9.98956Z" fill="#5A5A5A"/>
</svg>
