<svg width="577" height="206" viewBox="0 0 577 206" fill="none" xmlns="http://www.w3.org/2000/svg">
<path d="M566.013 198.575V201.711H566.939C567.413 201.711 567.743 201.478 567.93 201.01C568.032 200.754 568.083 200.449 568.083 200.094C568.083 199.605 568.006 199.23 567.852 198.969C567.7 198.706 567.395 198.575 566.939 198.575H566.013ZM567.108 197.74C567.406 197.745 567.654 197.779 567.852 197.845C568.189 197.955 568.461 198.159 568.67 198.454C568.837 198.693 568.952 198.952 569.012 199.23C569.073 199.508 569.104 199.774 569.104 200.026C569.104 200.665 568.976 201.206 568.719 201.65C568.371 202.247 567.834 202.546 567.108 202.546H565.038V197.74H567.108ZM571.19 199.664C570.975 199.664 570.808 199.731 570.688 199.866C570.571 200.001 570.497 200.183 570.467 200.414H571.911C571.896 200.168 571.821 199.982 571.686 199.856C571.553 199.728 571.388 199.664 571.19 199.664ZM571.19 198.898C571.486 198.898 571.752 198.953 571.989 199.064C572.226 199.175 572.422 199.35 572.576 199.589C572.715 199.8 572.806 200.044 572.847 200.322C572.871 200.486 572.881 200.72 572.876 201.027H570.444C570.457 201.383 570.569 201.633 570.78 201.777C570.908 201.866 571.062 201.91 571.243 201.91C571.434 201.91 571.589 201.856 571.709 201.747C571.774 201.689 571.832 201.607 571.882 201.503H572.831C572.807 201.714 572.697 201.928 572.501 202.145C572.197 202.491 571.771 202.664 571.223 202.664C570.771 202.664 570.372 202.518 570.026 202.227C569.681 201.935 569.508 201.461 569.508 200.805C569.508 200.19 569.663 199.718 569.974 199.39C570.287 199.062 570.693 198.898 571.19 198.898ZM575.628 200.267C575.611 200.134 575.566 200.015 575.494 199.908C575.39 199.765 575.228 199.693 575.009 199.693C574.696 199.693 574.481 199.849 574.366 200.159C574.305 200.325 574.275 200.544 574.275 200.818C574.275 201.079 574.305 201.289 574.366 201.447C574.477 201.743 574.686 201.891 574.992 201.891C575.21 201.891 575.364 201.832 575.455 201.715C575.547 201.597 575.602 201.445 575.621 201.258H576.57C576.549 201.541 576.446 201.808 576.264 202.06C575.973 202.467 575.541 202.67 574.969 202.67C574.398 202.67 573.977 202.5 573.708 202.161C573.438 201.822 573.303 201.382 573.303 200.841C573.303 200.23 573.452 199.755 573.75 199.416C574.048 199.077 574.459 198.907 574.982 198.907C575.428 198.907 575.792 199.007 576.075 199.207C576.359 199.407 576.528 199.761 576.58 200.267H575.628Z" fill="#CBD5E0"/>
<path d="M515.425 197.74H516.478L518.392 201.095V197.74H519.328V202.546H518.324L516.361 199.132V202.546H515.425V197.74ZM521.786 201.891C522.058 201.891 522.267 201.794 522.412 201.601C522.558 201.407 522.631 201.132 522.631 200.776C522.631 200.419 522.558 200.145 522.412 199.954C522.267 199.761 522.058 199.664 521.786 199.664C521.514 199.664 521.305 199.761 521.157 199.954C521.011 200.145 520.938 200.419 520.938 200.776C520.938 201.132 521.011 201.407 521.157 201.601C521.305 201.794 521.514 201.891 521.786 201.891ZM523.606 200.776C523.606 201.297 523.456 201.744 523.156 202.116C522.856 202.485 522.4 202.67 521.789 202.67C521.179 202.67 520.723 202.485 520.423 202.116C520.123 201.744 519.973 201.297 519.973 200.776C519.973 200.263 520.123 199.818 520.423 199.442C520.723 199.066 521.179 198.878 521.789 198.878C522.4 198.878 522.856 199.066 523.156 199.442C523.456 199.818 523.606 200.263 523.606 200.776ZM526.465 198.992H527.463L526.181 202.546H525.2L523.925 198.992H524.968L525.709 201.614L526.465 198.992Z" fill="#CBD5E0"/>
<path d="M469.274 201.829C469.672 201.829 469.987 201.682 470.22 201.389C470.454 201.095 470.572 200.678 470.572 200.137C470.572 199.598 470.454 199.181 470.22 198.888C469.987 198.592 469.672 198.444 469.274 198.444C468.876 198.444 468.559 198.591 468.322 198.885C468.085 199.178 467.967 199.595 467.967 200.137C467.967 200.678 468.085 201.095 468.322 201.389C468.559 201.682 468.876 201.829 469.274 201.829ZM471.576 200.137C471.576 201 471.334 201.66 470.849 202.119C470.486 202.493 469.961 202.68 469.274 202.68C468.587 202.68 468.062 202.493 467.699 202.119C467.212 201.66 466.969 201 466.969 200.137C466.969 199.256 467.212 198.596 467.699 198.154C468.062 197.78 468.587 197.593 469.274 197.593C469.961 197.593 470.486 197.78 470.849 198.154C471.334 198.596 471.576 199.256 471.576 200.137ZM474.393 200.267C474.376 200.134 474.331 200.015 474.259 199.908C474.155 199.765 473.993 199.693 473.774 199.693C473.461 199.693 473.246 199.849 473.131 200.159C473.07 200.325 473.04 200.544 473.04 200.818C473.04 201.079 473.07 201.289 473.131 201.447C473.242 201.743 473.451 201.891 473.757 201.891C473.975 201.891 474.129 201.832 474.22 201.715C474.312 201.597 474.367 201.445 474.387 201.258H475.335C475.314 201.541 475.211 201.808 475.029 202.06C474.738 202.467 474.306 202.67 473.734 202.67C473.163 202.67 472.742 202.5 472.473 202.161C472.203 201.822 472.068 201.382 472.068 200.841C472.068 200.23 472.217 199.755 472.515 199.416C472.813 199.077 473.224 198.907 473.748 198.907C474.193 198.907 474.557 199.007 474.84 199.207C475.125 199.407 475.293 199.761 475.345 200.267H474.393ZM475.622 199.687V199.025H476.118V198.034H477.037V199.025H477.614V199.687H477.037V201.565C477.037 201.71 477.056 201.802 477.093 201.839C477.13 201.873 477.243 201.891 477.432 201.891C477.46 201.891 477.489 201.891 477.52 201.891C477.553 201.889 477.584 201.886 477.614 201.884V202.579L477.174 202.595C476.735 202.61 476.435 202.534 476.274 202.367C476.17 202.26 476.118 202.096 476.118 201.874V199.687H475.622Z" fill="#CBD5E0"/>
<path d="M418.604 201.063C418.634 201.282 418.694 201.446 418.783 201.555C418.946 201.753 419.226 201.852 419.621 201.852C419.858 201.852 420.05 201.826 420.198 201.773C420.479 201.673 420.619 201.488 420.619 201.216C420.619 201.057 420.549 200.934 420.41 200.847C420.271 200.763 420.053 200.688 419.755 200.622L419.246 200.508C418.746 200.395 418.401 200.272 418.209 200.14C417.885 199.918 417.724 199.571 417.724 199.1C417.724 198.669 417.88 198.312 418.193 198.027C418.506 197.742 418.966 197.6 419.572 197.6C420.079 197.6 420.51 197.735 420.867 198.004C421.225 198.272 421.413 198.661 421.431 199.172H420.466C420.448 198.882 420.322 198.677 420.087 198.555C419.931 198.475 419.736 198.435 419.504 198.435C419.245 198.435 419.039 198.487 418.884 198.591C418.73 198.696 418.653 198.841 418.653 199.028C418.653 199.2 418.729 199.328 418.881 199.413C418.979 199.469 419.188 199.536 419.507 199.612L420.335 199.811C420.698 199.898 420.972 200.014 421.157 200.159C421.444 200.386 421.587 200.713 421.587 201.141C421.587 201.58 421.419 201.945 421.082 202.236C420.747 202.525 420.273 202.67 419.66 202.67C419.034 202.67 418.542 202.528 418.183 202.243C417.825 201.956 417.645 201.563 417.645 201.063H418.604ZM423.658 199.664C423.442 199.664 423.275 199.731 423.156 199.866C423.038 200.001 422.964 200.183 422.934 200.414H424.378C424.363 200.168 424.288 199.982 424.153 199.856C424.021 199.728 423.855 199.664 423.658 199.664ZM423.658 198.898C423.953 198.898 424.22 198.953 424.456 199.064C424.693 199.175 424.889 199.35 425.043 199.589C425.182 199.8 425.273 200.044 425.314 200.322C425.338 200.486 425.348 200.72 425.343 201.027H422.911C422.924 201.383 423.036 201.633 423.247 201.777C423.375 201.866 423.529 201.91 423.71 201.91C423.901 201.91 424.057 201.856 424.176 201.747C424.241 201.689 424.299 201.607 424.349 201.503H425.298C425.274 201.714 425.164 201.928 424.968 202.145C424.664 202.491 424.238 202.664 423.69 202.664C423.238 202.664 422.839 202.518 422.494 202.227C422.148 201.935 421.975 201.461 421.975 200.805C421.975 200.19 422.131 199.718 422.441 199.39C422.754 199.062 423.16 198.898 423.658 198.898ZM428.421 200.769C428.421 200.495 428.358 200.253 428.232 200.042C428.108 199.831 427.906 199.726 427.626 199.726C427.289 199.726 427.057 199.886 426.931 200.205C426.866 200.375 426.833 200.59 426.833 200.851C426.833 201.264 426.943 201.554 427.163 201.721C427.293 201.819 427.447 201.868 427.626 201.868C427.884 201.868 428.081 201.768 428.216 201.568C428.353 201.368 428.421 201.102 428.421 200.769ZM427.893 198.914C428.308 198.914 428.659 199.067 428.946 199.374C429.235 199.68 429.38 200.13 429.38 200.724C429.38 201.35 429.239 201.827 428.956 202.155C428.676 202.483 428.314 202.647 427.87 202.647C427.588 202.647 427.353 202.577 427.166 202.435C427.064 202.357 426.964 202.243 426.866 202.093V203.945H425.947V198.992H426.837V199.517C426.937 199.363 427.043 199.241 427.156 199.152C427.363 198.993 427.608 198.914 427.893 198.914Z" fill="#CBD5E0"/>
<path d="M369.268 200.73H370.487L369.887 198.839L369.268 200.73ZM369.33 197.74H370.465L372.167 202.546H371.078L370.768 201.558H368.997L368.665 202.546H367.615L369.33 197.74ZM373.63 198.992V201.134C373.63 201.336 373.654 201.489 373.702 201.591C373.787 201.771 373.953 201.861 374.201 201.861C374.518 201.861 374.736 201.733 374.853 201.477C374.914 201.338 374.944 201.154 374.944 200.926V198.992H375.887V202.546H374.984V202.044C374.975 202.055 374.953 202.087 374.918 202.142C374.884 202.196 374.842 202.244 374.794 202.285C374.649 202.416 374.508 202.505 374.371 202.553C374.236 202.6 374.077 202.624 373.895 202.624C373.369 202.624 373.014 202.435 372.832 202.057C372.729 201.848 372.678 201.541 372.678 201.134V198.992H373.63ZM378.313 201.783C378.53 201.783 378.714 201.702 378.864 201.539C379.014 201.373 379.089 201.112 379.089 200.753C379.089 200.416 379.017 200.159 378.873 199.983C378.732 199.807 378.542 199.719 378.303 199.719C377.977 199.719 377.752 199.873 377.628 200.179C377.563 200.342 377.53 200.543 377.53 200.782C377.53 200.989 377.565 201.172 377.634 201.333C377.76 201.633 377.986 201.783 378.313 201.783ZM378.081 198.907C378.259 198.907 378.415 198.935 378.547 198.989C378.773 199.082 378.956 199.254 379.095 199.504V198.992H379.998V202.364C379.998 202.822 379.921 203.168 379.767 203.4C379.502 203.8 378.993 204 378.241 204C377.787 204 377.416 203.911 377.129 203.733C376.842 203.555 376.683 203.288 376.653 202.934H377.664C377.69 203.043 377.732 203.121 377.791 203.169C377.891 203.254 378.059 203.296 378.296 203.296C378.631 203.296 378.855 203.184 378.968 202.96C379.042 202.817 379.079 202.575 379.079 202.236V202.008C378.99 202.16 378.894 202.274 378.792 202.351C378.607 202.492 378.367 202.562 378.071 202.562C377.615 202.562 377.25 202.403 376.976 202.083C376.704 201.761 376.568 201.327 376.568 200.779C376.568 200.251 376.7 199.807 376.963 199.449C377.226 199.088 377.598 198.907 378.081 198.907Z" fill="#CBD5E0"/>
<path d="M321.88 200.724V200.834C321.888 201.206 321.929 201.468 322 201.62C322.074 201.77 322.231 201.845 322.47 201.845C322.707 201.845 322.863 201.763 322.939 201.597C322.985 201.5 323.008 201.334 323.008 201.102V197.74H324.012V201.085C324.012 201.494 323.941 201.818 323.8 202.057C323.561 202.461 323.13 202.664 322.506 202.664C321.882 202.664 321.463 202.5 321.25 202.174C321.037 201.846 320.931 201.4 320.931 200.834V200.724H321.88ZM325.861 198.992V201.134C325.861 201.336 325.885 201.489 325.932 201.591C326.017 201.771 326.184 201.861 326.431 201.861C326.749 201.861 326.966 201.733 327.083 201.477C327.144 201.338 327.175 201.154 327.175 200.926V198.992H328.117V202.546H327.214V202.044C327.205 202.055 327.183 202.087 327.149 202.142C327.114 202.196 327.073 202.244 327.025 202.285C326.879 202.416 326.738 202.505 326.601 202.553C326.466 202.6 326.307 202.624 326.125 202.624C325.599 202.624 325.245 202.435 325.062 202.057C324.96 201.848 324.909 201.541 324.909 201.134V198.992H325.861ZM329.966 202.546H329.036V197.74H329.966V202.546Z" fill="#CBD5E0"/>
<path d="M272.934 200.724V200.834C272.943 201.206 272.983 201.468 273.055 201.62C273.129 201.77 273.285 201.845 273.525 201.845C273.761 201.845 273.918 201.763 273.994 201.597C274.04 201.5 274.063 201.334 274.063 201.102V197.74H275.067V201.085C275.067 201.494 274.996 201.818 274.855 202.057C274.616 202.461 274.184 202.664 273.56 202.664C272.937 202.664 272.518 202.5 272.305 202.174C272.092 201.846 271.986 201.4 271.986 200.834V200.724H272.934ZM276.915 198.992V201.134C276.915 201.336 276.939 201.489 276.987 201.591C277.072 201.771 277.238 201.861 277.486 201.861C277.803 201.861 278.021 201.733 278.138 201.477C278.199 201.338 278.229 201.154 278.229 200.926V198.992H279.172V202.546H278.269V202.044C278.26 202.055 278.238 202.087 278.203 202.142C278.169 202.196 278.127 202.244 278.079 202.285C277.934 202.416 277.793 202.505 277.656 202.553C277.521 202.6 277.362 202.624 277.18 202.624C276.654 202.624 276.299 202.435 276.117 202.057C276.014 201.848 275.963 201.541 275.963 201.134V198.992H276.915ZM282.041 198.907C282.408 198.907 282.708 199.004 282.941 199.198C283.176 199.389 283.293 199.707 283.293 200.153V202.546H282.341V200.384C282.341 200.198 282.316 200.054 282.266 199.954C282.175 199.771 282.001 199.68 281.744 199.68C281.429 199.68 281.213 199.814 281.095 200.081C281.035 200.222 281.004 200.403 281.004 200.622V202.546H280.078V198.999H280.975V199.517C281.094 199.335 281.207 199.203 281.314 199.123C281.505 198.979 281.748 198.907 282.041 198.907Z" fill="#CBD5E0"/>
<path d="M225.61 197.74H227.055V202.546H226.119V199.295C226.119 199.202 226.12 199.072 226.122 198.904C226.124 198.735 226.125 198.604 226.125 198.513L225.216 202.546H224.241L223.338 198.513C223.338 198.604 223.339 198.735 223.341 198.904C223.343 199.072 223.344 199.202 223.344 199.295V202.546H222.408V197.74H223.869L224.743 201.519L225.61 197.74ZM229.872 200.818C229.813 200.855 229.753 200.885 229.692 200.909C229.634 200.931 229.552 200.952 229.448 200.971L229.239 201.01C229.043 201.045 228.903 201.088 228.818 201.138C228.675 201.222 228.603 201.354 228.603 201.532C228.603 201.691 228.647 201.806 228.734 201.878C228.823 201.947 228.93 201.982 229.056 201.982C229.256 201.982 229.44 201.923 229.608 201.806C229.777 201.689 229.865 201.475 229.872 201.164V200.818ZM229.308 200.384C229.479 200.363 229.602 200.336 229.676 200.303C229.809 200.246 229.875 200.158 229.875 200.039C229.875 199.893 229.824 199.793 229.722 199.739C229.622 199.682 229.474 199.654 229.278 199.654C229.059 199.654 228.903 199.708 228.812 199.817C228.747 199.898 228.703 200.006 228.682 200.143H227.785C227.804 199.832 227.891 199.577 228.046 199.377C228.291 199.064 228.713 198.907 229.311 198.907C229.7 198.907 230.046 198.985 230.348 199.139C230.65 199.293 230.801 199.585 230.801 200.013V201.643C230.801 201.756 230.803 201.893 230.807 202.054C230.814 202.176 230.832 202.258 230.863 202.302C230.893 202.345 230.939 202.381 231 202.409V202.546H229.989C229.961 202.474 229.941 202.407 229.93 202.344C229.919 202.281 229.911 202.209 229.904 202.129C229.776 202.268 229.628 202.386 229.461 202.484C229.261 202.599 229.035 202.657 228.783 202.657C228.461 202.657 228.195 202.566 227.984 202.383C227.775 202.198 227.671 201.938 227.671 201.601C227.671 201.164 227.839 200.847 228.176 200.652C228.361 200.545 228.633 200.469 228.991 200.424L229.308 200.384ZM231.772 203.228L231.89 203.234C231.981 203.238 232.068 203.235 232.151 203.224C232.233 203.213 232.303 203.188 232.359 203.149C232.414 203.112 232.464 203.035 232.509 202.918C232.557 202.8 232.577 202.729 232.568 202.703L231.264 198.992H232.297L233.073 201.614L233.807 198.992H234.795L233.576 202.487C233.341 203.161 233.155 203.579 233.018 203.739C232.881 203.903 232.607 203.984 232.196 203.984C232.114 203.984 232.047 203.983 231.997 203.981C231.947 203.981 231.872 203.977 231.772 203.971V203.228Z" fill="#CBD5E0"/>
<path d="M175.12 200.73H176.34L175.74 198.839L175.12 200.73ZM175.182 197.74H176.317L178.019 202.546H176.93L176.62 201.558H174.85L174.517 202.546H173.467L175.182 197.74ZM181.006 200.769C181.006 200.495 180.943 200.253 180.817 200.042C180.693 199.831 180.49 199.726 180.21 199.726C179.873 199.726 179.642 199.886 179.516 200.205C179.45 200.375 179.418 200.59 179.418 200.851C179.418 201.264 179.528 201.554 179.747 201.721C179.878 201.819 180.032 201.868 180.21 201.868C180.469 201.868 180.665 201.768 180.8 201.568C180.937 201.368 181.006 201.102 181.006 200.769ZM180.477 198.914C180.893 198.914 181.244 199.067 181.531 199.374C181.82 199.68 181.964 200.13 181.964 200.724C181.964 201.35 181.823 201.827 181.54 202.155C181.26 202.483 180.898 202.647 180.455 202.647C180.172 202.647 179.937 202.577 179.75 202.435C179.648 202.357 179.548 202.243 179.45 202.093V203.945H178.531V198.992H179.421V199.517C179.521 199.363 179.628 199.241 179.741 199.152C179.947 198.993 180.193 198.914 180.477 198.914ZM184.569 198.907C184.587 198.907 184.601 198.909 184.612 198.911C184.625 198.911 184.652 198.912 184.693 198.914V199.866C184.635 199.859 184.582 199.855 184.537 199.853C184.491 199.851 184.454 199.85 184.426 199.85C184.052 199.85 183.801 199.971 183.673 200.215C183.601 200.352 183.565 200.563 183.565 200.847V202.546H182.629V198.992H183.516V199.612C183.66 199.375 183.785 199.213 183.891 199.126C184.065 198.98 184.291 198.907 184.569 198.907Z" fill="#CBD5E0"/>
<path d="M128.046 197.74H129.49V202.546H128.554V199.295C128.554 199.202 128.555 199.072 128.558 198.904C128.56 198.735 128.561 198.604 128.561 198.513L127.651 202.546H126.676L125.773 198.513C125.773 198.604 125.774 198.735 125.776 198.904C125.779 199.072 125.78 199.202 125.78 199.295V202.546H124.844V197.74H126.305L127.178 201.519L128.046 197.74ZM132.307 200.818C132.248 200.855 132.189 200.885 132.128 200.909C132.069 200.931 131.988 200.952 131.883 200.971L131.675 201.01C131.479 201.045 131.339 201.088 131.254 201.138C131.111 201.222 131.039 201.354 131.039 201.532C131.039 201.691 131.082 201.806 131.169 201.878C131.258 201.947 131.366 201.982 131.492 201.982C131.692 201.982 131.876 201.923 132.043 201.806C132.213 201.689 132.301 201.475 132.307 201.164V200.818ZM131.743 200.384C131.915 200.363 132.038 200.336 132.112 200.303C132.244 200.246 132.31 200.158 132.31 200.039C132.31 199.893 132.259 199.793 132.157 199.739C132.057 199.682 131.909 199.654 131.714 199.654C131.494 199.654 131.339 199.708 131.248 199.817C131.182 199.898 131.139 200.006 131.117 200.143H130.22C130.24 199.832 130.327 199.577 130.481 199.377C130.727 199.064 131.149 198.907 131.746 198.907C132.135 198.907 132.481 198.985 132.783 199.139C133.085 199.293 133.236 199.585 133.236 200.013V201.643C133.236 201.756 133.239 201.893 133.243 202.054C133.249 202.176 133.268 202.258 133.298 202.302C133.329 202.345 133.374 202.381 133.435 202.409V202.546H132.425C132.396 202.474 132.377 202.407 132.366 202.344C132.355 202.281 132.346 202.209 132.34 202.129C132.212 202.268 132.064 202.386 131.896 202.484C131.696 202.599 131.47 202.657 131.218 202.657C130.896 202.657 130.63 202.566 130.419 202.383C130.211 202.198 130.106 201.938 130.106 201.601C130.106 201.164 130.275 200.847 130.612 200.652C130.796 200.545 131.068 200.469 131.427 200.424L131.743 200.384ZM135.995 198.907C136.012 198.907 136.026 198.909 136.037 198.911C136.05 198.911 136.077 198.912 136.119 198.914V199.866C136.06 199.859 136.008 199.855 135.962 199.853C135.917 199.851 135.88 199.85 135.851 199.85C135.477 199.85 135.226 199.971 135.098 200.215C135.026 200.352 134.991 200.563 134.991 200.847V202.546H134.055V198.992H134.942V199.612C135.085 199.375 135.21 199.213 135.317 199.126C135.49 198.98 135.717 198.907 135.995 198.907Z" fill="#CBD5E0"/>
<path d="M75.9159 197.747H79.3231V198.591H76.9136V199.696H79.0231V200.531H76.9136V202.546H75.9159V197.747ZM81.325 199.664C81.1098 199.664 80.9425 199.731 80.8229 199.866C80.7055 200.001 80.6316 200.183 80.6012 200.414H82.0456C82.0304 200.168 81.9554 199.982 81.8206 199.856C81.688 199.728 81.5228 199.664 81.325 199.664ZM81.325 198.898C81.6206 198.898 81.8869 198.953 82.1238 199.064C82.3608 199.175 82.5564 199.35 82.7107 199.589C82.8498 199.8 82.9401 200.044 82.9814 200.322C83.0053 200.486 83.015 200.72 83.0107 201.027H80.5784C80.5914 201.383 80.7034 201.633 80.9142 201.777C81.0424 201.866 81.1968 201.91 81.3772 201.91C81.5685 201.91 81.7239 201.856 81.8434 201.747C81.9086 201.689 81.9663 201.607 82.0162 201.503H82.965C82.9411 201.714 82.8314 201.928 82.6357 202.145C82.3314 202.491 81.9054 202.664 81.3576 202.664C80.9055 202.664 80.5066 202.518 80.161 202.227C79.8154 201.935 79.6426 201.461 79.6426 200.805C79.6426 200.19 79.798 199.718 80.1089 199.39C80.4219 199.062 80.8273 198.898 81.325 198.898ZM85.5604 198.914C86.0277 198.914 86.3929 199.082 86.6559 199.419C86.9211 199.756 87.0537 200.191 87.0537 200.724C87.0537 201.276 86.9233 201.733 86.6624 202.096C86.4016 202.459 86.0375 202.641 85.5702 202.641C85.2767 202.641 85.0409 202.582 84.8627 202.465C84.7561 202.395 84.6409 202.273 84.517 202.099V202.546H83.6074V197.747H84.5333V199.455C84.6507 199.29 84.7801 199.164 84.9213 199.077C85.0887 198.968 85.3017 198.914 85.5604 198.914ZM85.3224 201.874C85.5615 201.874 85.7473 201.778 85.8799 201.584C86.0125 201.391 86.0788 201.137 86.0788 200.821C86.0788 200.569 86.0462 200.361 85.981 200.195C85.8571 199.882 85.6289 199.726 85.2963 199.726C84.9594 199.726 84.7279 199.879 84.6018 200.186C84.5366 200.349 84.504 200.559 84.504 200.818C84.504 201.122 84.5714 201.375 84.7062 201.575C84.8409 201.774 85.0463 201.874 85.3224 201.874Z" fill="#CBD5E0"/>
<path d="M27.8846 200.724V200.834C27.8933 201.206 27.9335 201.468 28.0052 201.62C28.0791 201.77 28.2356 201.845 28.4747 201.845C28.7117 201.845 28.8682 201.763 28.9442 201.597C28.9899 201.5 29.0127 201.334 29.0127 201.102V197.74H30.0169V201.085C30.0169 201.494 29.9463 201.818 29.805 202.057C29.5659 202.461 29.1344 202.664 28.5106 202.664C27.8868 202.664 27.4683 202.5 27.2553 202.174C27.0423 201.846 26.9358 201.4 26.9358 200.834V200.724H27.8846ZM32.8992 200.818C32.8405 200.855 32.7808 200.885 32.7199 200.909C32.6612 200.931 32.5797 200.952 32.4754 200.971L32.2667 201.01C32.0711 201.045 31.9309 201.088 31.8461 201.138C31.7026 201.222 31.6309 201.354 31.6309 201.532C31.6309 201.691 31.6744 201.806 31.7613 201.878C31.8504 201.947 31.958 201.982 32.0841 201.982C32.2841 201.982 32.4678 201.923 32.6351 201.806C32.8047 201.689 32.8927 201.475 32.8992 201.164V200.818ZM32.3352 200.384C32.5069 200.363 32.6297 200.336 32.7036 200.303C32.8362 200.246 32.9025 200.158 32.9025 200.039C32.9025 199.893 32.8514 199.793 32.7492 199.739C32.6493 199.682 32.5014 199.654 32.3058 199.654C32.0863 199.654 31.9309 199.708 31.8396 199.817C31.7744 199.898 31.7309 200.006 31.7091 200.143H30.8125C30.8321 199.832 30.919 199.577 31.0733 199.377C31.319 199.064 31.7407 198.907 32.3384 198.907C32.7275 198.907 33.0731 198.985 33.3753 199.139C33.6774 199.293 33.8285 199.585 33.8285 200.013V201.643C33.8285 201.756 33.8306 201.893 33.835 202.054C33.8415 202.176 33.86 202.258 33.8904 202.302C33.9208 202.345 33.9665 202.381 34.0274 202.409V202.546H33.0166C32.9883 202.474 32.9688 202.407 32.9579 202.344C32.947 202.281 32.9384 202.209 32.9318 202.129C32.8036 202.268 32.6558 202.386 32.4884 202.484C32.2884 202.599 32.0624 202.657 31.8102 202.657C31.4885 202.657 31.2222 202.566 31.0114 202.383C30.8027 202.198 30.6984 201.938 30.6984 201.601C30.6984 201.164 30.8669 200.847 31.2038 200.652C31.3885 200.545 31.6602 200.469 32.0189 200.424L32.3352 200.384ZM36.626 198.907C36.9933 198.907 37.2933 199.004 37.5259 199.198C37.7606 199.389 37.878 199.707 37.878 200.153V202.546H36.9259V200.384C36.9259 200.198 36.9009 200.054 36.8509 199.954C36.7596 199.771 36.5858 199.68 36.3293 199.68C36.0141 199.68 35.7978 199.814 35.6804 200.081C35.6196 200.222 35.5891 200.403 35.5891 200.622V202.546H34.6632V198.999H35.5598V199.517C35.6793 199.335 35.7924 199.203 35.8989 199.123C36.0902 198.979 36.3325 198.907 36.626 198.907Z" fill="#CBD5E0"/>
<path d="M8.36744 178.426C8.36744 178.969 8.412 179.386 8.50112 179.675C8.59024 179.962 8.77282 180.105 9.04888 180.105C9.32493 180.105 9.50535 179.962 9.59012 179.675C9.67707 179.386 9.72054 178.969 9.72054 178.426C9.72054 177.856 9.67707 177.435 9.59012 177.161C9.50535 176.887 9.32493 176.75 9.04888 176.75C8.77282 176.75 8.59024 176.887 8.50112 177.161C8.412 177.435 8.36744 177.856 8.36744 178.426ZM9.04888 175.984C9.65098 175.984 10.0727 176.196 10.3139 176.62C10.5574 177.043 10.6791 177.646 10.6791 178.426C10.6791 179.206 10.5574 179.807 10.3139 180.229C10.0727 180.651 9.65098 180.862 9.04888 180.862C8.44677 180.862 8.024 180.651 7.78055 180.229C7.53927 179.807 7.41863 179.206 7.41863 178.426C7.41863 177.646 7.53927 177.043 7.78055 176.62C8.024 176.196 8.44677 175.984 9.04888 175.984Z" fill="#CBD5E0"/>
<path d="M0.495216 142.877V142.244C0.788661 142.231 0.994072 142.212 1.11145 142.185C1.29838 142.144 1.45054 142.062 1.56792 141.938C1.64834 141.853 1.70921 141.74 1.75051 141.599C1.77442 141.514 1.78637 141.451 1.78637 141.409H2.55911V146.137H1.60704V142.877H0.495216ZM4.90666 143.819C4.90666 144.362 4.95122 144.779 5.04034 145.068C5.12946 145.355 5.31205 145.498 5.58811 145.498C5.86416 145.498 6.04457 145.355 6.12935 145.068C6.21629 144.779 6.25977 144.362 6.25977 143.819C6.25977 143.249 6.21629 142.828 6.12935 142.554C6.04457 142.28 5.86416 142.143 5.58811 142.143C5.31205 142.143 5.12946 142.28 5.04034 142.554C4.95122 142.828 4.90666 143.249 4.90666 143.819ZM5.58811 141.377C6.19021 141.377 6.6119 141.589 6.85318 142.013C7.09663 142.437 7.21835 143.039 7.21835 143.819C7.21835 144.599 7.09663 145.2 6.85318 145.622C6.6119 146.044 6.19021 146.255 5.58811 146.255C4.986 146.255 4.56322 146.044 4.31977 145.622C4.0785 145.2 3.95786 144.599 3.95786 143.819C3.95786 143.039 4.0785 142.437 4.31977 142.013C4.56322 141.589 4.986 141.377 5.58811 141.377ZM8.62362 143.819C8.62362 144.362 8.66818 144.779 8.7573 145.068C8.84642 145.355 9.02901 145.498 9.30507 145.498C9.58112 145.498 9.76154 145.355 9.84631 145.068C9.93326 144.779 9.97673 144.362 9.97673 143.819C9.97673 143.249 9.93326 142.828 9.84631 142.554C9.76154 142.28 9.58112 142.143 9.30507 142.143C9.02901 142.143 8.84642 142.28 8.7573 142.554C8.66818 142.828 8.62362 143.249 8.62362 143.819ZM9.30507 141.377C9.90717 141.377 10.3289 141.589 10.5701 142.013C10.8136 142.437 10.9353 143.039 10.9353 143.819C10.9353 144.599 10.8136 145.2 10.5701 145.622C10.3289 146.044 9.90717 146.255 9.30507 146.255C8.70296 146.255 8.28019 146.044 8.03674 145.622C7.79546 145.2 7.67482 144.599 7.67482 143.819C7.67482 143.039 7.79546 142.437 8.03674 142.013C8.28019 141.589 8.70296 141.377 9.30507 141.377Z" fill="#CBD5E0"/>
<path d="M0.240898 111.531C0.249593 111.191 0.32241 110.882 0.459351 110.601C0.591944 110.286 0.904952 109.952 1.39837 109.6C1.82658 109.294 2.10373 109.074 2.2298 108.942C2.42325 108.735 2.51998 108.509 2.51998 108.264C2.51998 108.064 2.46455 107.897 2.3537 107.765C2.24284 107.632 2.08416 107.566 1.87767 107.566C1.59509 107.566 1.40272 107.671 1.30056 107.882C1.24187 108.004 1.20709 108.197 1.19622 108.462H0.293066C0.308282 108.06 0.381099 107.735 0.511519 107.488C0.759316 107.016 1.19948 106.78 1.83202 106.78C2.33196 106.78 2.72974 106.919 3.02536 107.197C3.32098 107.473 3.46879 107.84 3.46879 108.296C3.46879 108.646 3.36445 108.957 3.15578 109.229C3.01884 109.409 2.79386 109.61 2.48086 109.832L2.10916 110.096C1.87658 110.261 1.71681 110.381 1.62987 110.455C1.5451 110.528 1.47336 110.614 1.41468 110.712H3.47857V111.531H0.240898ZM4.90666 109.212C4.90666 109.756 4.95122 110.172 5.04034 110.461C5.12946 110.748 5.31205 110.891 5.58811 110.891C5.86416 110.891 6.04457 110.748 6.12935 110.461C6.21629 110.172 6.25977 109.756 6.25977 109.212C6.25977 108.643 6.21629 108.221 6.12935 107.947C6.04457 107.673 5.86416 107.536 5.58811 107.536C5.31205 107.536 5.12946 107.673 5.04034 107.947C4.95122 108.221 4.90666 108.643 4.90666 109.212ZM5.58811 106.77C6.19021 106.77 6.6119 106.982 6.85318 107.406C7.09663 107.83 7.21835 108.432 7.21835 109.212C7.21835 109.993 7.09663 110.594 6.85318 111.015C6.6119 111.437 6.19021 111.648 5.58811 111.648C4.986 111.648 4.56322 111.437 4.31977 111.015C4.0785 110.594 3.95786 109.993 3.95786 109.212C3.95786 108.432 4.0785 107.83 4.31977 107.406C4.56322 106.982 4.986 106.77 5.58811 106.77ZM8.62362 109.212C8.62362 109.756 8.66818 110.172 8.7573 110.461C8.84642 110.748 9.02901 110.891 9.30507 110.891C9.58112 110.891 9.76154 110.748 9.84631 110.461C9.93326 110.172 9.97673 109.756 9.97673 109.212C9.97673 108.643 9.93326 108.221 9.84631 107.947C9.76154 107.673 9.58112 107.536 9.30507 107.536C9.02901 107.536 8.84642 107.673 8.7573 107.947C8.66818 108.221 8.62362 108.643 8.62362 109.212ZM9.30507 106.77C9.90717 106.77 10.3289 106.982 10.5701 107.406C10.8136 107.83 10.9353 108.432 10.9353 109.212C10.9353 109.993 10.8136 110.594 10.5701 111.015C10.3289 111.437 9.90717 111.648 9.30507 111.648C8.70296 111.648 8.28019 111.437 8.03674 111.015C7.79546 110.594 7.67482 109.993 7.67482 109.212C7.67482 108.432 7.79546 107.83 8.03674 107.406C8.28019 106.982 8.70296 106.77 9.30507 106.77Z" fill="#CBD5E0"/>
<path d="M1.12123 75.4727C1.12123 75.6618 1.15166 75.8183 1.21252 75.9422C1.32556 76.1704 1.53097 76.2845 1.82876 76.2845C2.01135 76.2845 2.17002 76.2226 2.30479 76.0987C2.44173 75.9726 2.5102 75.7922 2.5102 75.5574C2.5102 75.2466 2.38413 75.039 2.13198 74.9347C1.98852 74.876 1.76246 74.8467 1.4538 74.8467V74.1815C1.75594 74.1772 1.96679 74.1478 2.08634 74.0935C2.29283 74.0022 2.39608 73.8174 2.39608 73.5392C2.39608 73.3588 2.34283 73.2121 2.23632 73.099C2.13198 72.986 1.98417 72.9295 1.79289 72.9295C1.57335 72.9295 1.41141 72.999 1.30708 73.1382C1.20492 73.2773 1.15601 73.4631 1.16036 73.6957H0.293066C0.301761 73.4609 0.341973 73.2381 0.413704 73.0273C0.489782 72.8425 0.609334 72.6719 0.772358 72.5154C0.894083 72.4045 1.03863 72.3198 1.206 72.2611C1.37338 72.2024 1.57879 72.173 1.82224 72.173C2.27436 72.173 2.63845 72.2904 2.9145 72.5252C3.19273 72.7578 3.33184 73.0708 3.33184 73.4642C3.33184 73.7424 3.24925 73.9772 3.08405 74.1685C2.97971 74.288 2.87103 74.3695 2.758 74.413C2.84277 74.413 2.9645 74.4858 3.12317 74.6315C3.3601 74.851 3.47857 75.151 3.47857 75.5314C3.47857 75.9313 3.33945 76.2834 3.06122 76.5878C2.78517 76.8899 2.37543 77.041 1.83202 77.041C1.16253 77.041 0.697367 76.8225 0.436528 76.3856C0.299587 76.153 0.223509 75.8487 0.208293 75.4727H1.12123ZM4.90666 74.6054C4.90666 75.1488 4.95122 75.565 5.04034 75.8541C5.12946 76.1411 5.31205 76.2845 5.58811 76.2845C5.86416 76.2845 6.04457 76.1411 6.12935 75.8541C6.21629 75.565 6.25977 75.1488 6.25977 74.6054C6.25977 74.0359 6.21629 73.6142 6.12935 73.3403C6.04457 73.0664 5.86416 72.9295 5.58811 72.9295C5.31205 72.9295 5.12946 73.0664 5.04034 73.3403C4.95122 73.6142 4.90666 74.0359 4.90666 74.6054ZM5.58811 72.1633C6.19021 72.1633 6.6119 72.3752 6.85318 72.7991C7.09663 73.2229 7.21835 73.825 7.21835 74.6054C7.21835 75.3857 7.09663 75.9867 6.85318 76.4084C6.6119 76.8301 6.19021 77.041 5.58811 77.041C4.986 77.041 4.56322 76.8301 4.31977 76.4084C4.0785 75.9867 3.95786 75.3857 3.95786 74.6054C3.95786 73.825 4.0785 73.2229 4.31977 72.7991C4.56322 72.3752 4.986 72.1633 5.58811 72.1633ZM8.62362 74.6054C8.62362 75.1488 8.66818 75.565 8.7573 75.8541C8.84642 76.1411 9.02901 76.2845 9.30507 76.2845C9.58112 76.2845 9.76154 76.1411 9.84631 75.8541C9.93326 75.565 9.97673 75.1488 9.97673 74.6054C9.97673 74.0359 9.93326 73.6142 9.84631 73.3403C9.76154 73.0664 9.58112 72.9295 9.30507 72.9295C9.02901 72.9295 8.84642 73.0664 8.7573 73.3403C8.66818 73.6142 8.62362 74.0359 8.62362 74.6054ZM9.30507 72.1633C9.90717 72.1633 10.3289 72.3752 10.5701 72.7991C10.8136 73.2229 10.9353 73.825 10.9353 74.6054C10.9353 75.3857 10.8136 75.9867 10.5701 76.4084C10.3289 76.8301 9.90717 77.041 9.30507 77.041C8.70296 77.041 8.28019 76.8301 8.03674 76.4084C7.79546 75.9867 7.67482 75.3857 7.67482 74.6054C7.67482 73.825 7.79546 73.2229 8.03674 72.7991C8.28019 72.3752 8.70296 72.1633 9.30507 72.1633Z" fill="#CBD5E0"/>
<path d="M3.52421 41.2999H2.98949V42.3171H2.07982V41.2999H0.208293V40.488L1.94614 37.6188H2.98949V40.5728H3.52421V41.2999ZM2.07982 40.5728V38.5317L0.896257 40.5728H2.07982ZM4.90666 39.9989C4.90666 40.5423 4.95122 40.9586 5.04034 41.2477C5.12946 41.5346 5.31205 41.6781 5.58811 41.6781C5.86416 41.6781 6.04457 41.5346 6.12935 41.2477C6.21629 40.9586 6.25977 40.5423 6.25977 39.9989C6.25977 39.4294 6.21629 39.0077 6.12935 38.7339C6.04457 38.46 5.86416 38.323 5.58811 38.323C5.31205 38.323 5.12946 38.46 5.04034 38.7339C4.95122 39.0077 4.90666 39.4294 4.90666 39.9989ZM5.58811 37.5568C6.19021 37.5568 6.6119 37.7688 6.85318 38.1926C7.09663 38.6165 7.21835 39.2186 7.21835 39.9989C7.21835 40.7793 7.09663 41.3803 6.85318 41.802C6.6119 42.2237 6.19021 42.4345 5.58811 42.4345C4.986 42.4345 4.56322 42.2237 4.31977 41.802C4.0785 41.3803 3.95786 40.7793 3.95786 39.9989C3.95786 39.2186 4.0785 38.6165 4.31977 38.1926C4.56322 37.7688 4.986 37.5568 5.58811 37.5568ZM8.62362 39.9989C8.62362 40.5423 8.66818 40.9586 8.7573 41.2477C8.84642 41.5346 9.02901 41.6781 9.30507 41.6781C9.58112 41.6781 9.76154 41.5346 9.84631 41.2477C9.93326 40.9586 9.97673 40.5423 9.97673 39.9989C9.97673 39.4294 9.93326 39.0077 9.84631 38.7339C9.76154 38.46 9.58112 38.323 9.30507 38.323C9.02901 38.323 8.84642 38.46 8.7573 38.7339C8.66818 39.0077 8.62362 39.4294 8.62362 39.9989ZM9.30507 37.5568C9.90717 37.5568 10.3289 37.7688 10.5701 38.1926C10.8136 38.6165 10.9353 39.2186 10.9353 39.9989C10.9353 40.7793 10.8136 41.3803 10.5701 41.802C10.3289 42.2237 9.90717 42.4345 9.30507 42.4345C8.70296 42.4345 8.28019 42.2237 8.03674 41.802C7.79546 41.3803 7.67482 40.7793 7.67482 39.9989C7.67482 39.2186 7.79546 38.6165 8.03674 38.1926C8.28019 37.7688 8.70296 37.5568 9.30507 37.5568Z" fill="#CBD5E0"/>
<path d="M1.13427 6.44513C1.17123 6.64728 1.24187 6.80379 1.3462 6.91464C1.45054 7.02333 1.6027 7.07767 1.80267 7.07767C2.03308 7.07767 2.20806 6.99724 2.32761 6.83639C2.44934 6.67337 2.5102 6.46904 2.5102 6.22342C2.5102 5.98214 2.45369 5.77891 2.34066 5.61371C2.22762 5.44634 2.05156 5.36265 1.81246 5.36265C1.69942 5.36265 1.60161 5.37678 1.51901 5.40504C1.37338 5.4572 1.26361 5.55393 1.1897 5.69522L0.355015 5.65609L0.687586 3.04444H3.29272V3.83348H1.35925L1.1897 4.86706C1.33316 4.77359 1.44511 4.71164 1.52553 4.68121C1.6603 4.63121 1.82441 4.60622 2.01787 4.60622C2.40913 4.60622 2.75039 4.73772 3.04166 5.00074C3.33293 5.26375 3.47857 5.64631 3.47857 6.14843C3.47857 6.58534 3.33837 6.97551 3.05796 7.31895C2.77756 7.66238 2.35804 7.8341 1.79941 7.8341C1.34947 7.8341 0.979943 7.71347 0.690846 7.47219C0.401749 7.23091 0.240898 6.88856 0.208293 6.44513H1.13427ZM4.90666 5.392C4.90666 5.93541 4.95122 6.35167 5.04034 6.64076C5.12946 6.92769 5.31205 7.07115 5.58811 7.07115C5.86416 7.07115 6.04457 6.92769 6.12935 6.64076C6.21629 6.35167 6.25977 5.93541 6.25977 5.392C6.25977 4.8225 6.21629 4.40081 6.12935 4.12692C6.04457 3.85304 5.86416 3.7161 5.58811 3.7161C5.31205 3.7161 5.12946 3.85304 5.04034 4.12692C4.95122 4.40081 4.90666 4.8225 4.90666 5.392ZM5.58811 2.94989C6.19021 2.94989 6.6119 3.16182 6.85318 3.58568C7.09663 4.00955 7.21835 4.61165 7.21835 5.392C7.21835 6.17234 7.09663 6.77336 6.85318 7.19505C6.6119 7.61674 6.19021 7.82758 5.58811 7.82758C4.986 7.82758 4.56322 7.61674 4.31977 7.19505C4.0785 6.77336 3.95786 6.17234 3.95786 5.392C3.95786 4.61165 4.0785 4.00955 4.31977 3.58568C4.56322 3.16182 4.986 2.94989 5.58811 2.94989ZM8.62362 5.392C8.62362 5.93541 8.66818 6.35167 8.7573 6.64076C8.84642 6.92769 9.02901 7.07115 9.30507 7.07115C9.58112 7.07115 9.76154 6.92769 9.84631 6.64076C9.93326 6.35167 9.97673 5.93541 9.97673 5.392C9.97673 4.8225 9.93326 4.40081 9.84631 4.12692C9.76154 3.85304 9.58112 3.7161 9.30507 3.7161C9.02901 3.7161 8.84642 3.85304 8.7573 4.12692C8.66818 4.40081 8.62362 4.8225 8.62362 5.392ZM9.30507 2.94989C9.90717 2.94989 10.3289 3.16182 10.5701 3.58568C10.8136 4.00955 10.9353 4.61165 10.9353 5.392C10.9353 6.17234 10.8136 6.77336 10.5701 7.19505C10.3289 7.61674 9.90717 7.82758 9.30507 7.82758C8.70296 7.82758 8.28019 7.61674 8.03674 7.19505C7.79546 6.77336 7.67482 6.17234 7.67482 5.392C7.67482 4.61165 7.79546 4.00955 8.03674 3.58568C8.28019 3.16182 8.70296 2.94989 9.30507 2.94989Z" fill="#CBD5E0"/>
<line x1="27.1229" y1="178.601" x2="574.637" y2="178.601" stroke="#E2E8F0" stroke-width="0.667749" stroke-linecap="round" stroke-linejoin="round" stroke-dasharray="2.34 2.34"/>
<line x1="27.1229" y1="143.994" x2="574.637" y2="143.994" stroke="#E2E8F0" stroke-width="0.667749" stroke-linecap="round" stroke-linejoin="round" stroke-dasharray="2.34 2.34"/>
<line x1="27.1229" y1="109.388" x2="574.637" y2="109.388" stroke="#E2E8F0" stroke-width="0.667749" stroke-linecap="round" stroke-linejoin="round" stroke-dasharray="2.34 2.34"/>
<line x1="27.1229" y1="74.7806" x2="574.637" y2="74.7807" stroke="#E2E8F0" stroke-width="0.667749" stroke-linecap="round" stroke-linejoin="round" stroke-dasharray="2.34 2.34"/>
<line x1="27.1229" y1="40.1739" x2="574.637" y2="40.174" stroke="#E2E8F0" stroke-width="0.667749" stroke-linecap="round" stroke-linejoin="round" stroke-dasharray="2.34 2.34"/>
<line x1="27.1229" y1="5.56749" x2="574.637" y2="5.56754" stroke="#E2E8F0" stroke-width="0.667749" stroke-linecap="round" stroke-linejoin="round" stroke-dasharray="2.34 2.34"/>
<path d="M101.129 104.501C77.1626 96.8127 49.7045 104.893 33.9888 112.128C29.4335 114.226 26.7891 118.91 26.7891 123.925V164.524C26.7891 172.292 33.0863 178.589 40.8544 178.589H560.253C568.021 178.589 574.318 172.292 574.318 164.524V47.0449C574.318 38.2264 566.267 31.4286 557.559 32.8223C537.955 35.9598 522.839 39.6633 519.382 60.9605C515.8 83.0312 515.641 98.7685 496.609 103.374C477.475 108.005 466.352 80.92 447.157 60.9605C431.801 44.9929 405.939 65.771 396.396 72.4241C379.478 84.0032 341.019 58.7394 324.352 38.8802C300.554 10.5234 269.257 7.92984 245.62 38.8802C221.983 69.8305 198.538 44.4555 169.095 60.9605C139.652 77.4655 136.428 115.824 101.129 104.501Z" fill="url(#paint0_linear_183_2360)"/>
<path d="M26.7891 115.951C39.8026 108.392 72.8897 95.5429 101.129 104.613C136.428 115.951 139.652 77.5434 169.095 61.0173C198.538 44.4912 221.983 69.8986 245.62 38.9087C269.257 7.91869 300.554 10.5156 324.352 38.9087C341.019 58.7933 379.478 84.0894 396.396 72.4955C405.939 65.8339 431.801 45.0292 447.157 61.0173C466.352 81.0023 477.474 108.122 496.609 103.486C515.641 98.8737 515.8 83.1162 519.382 61.0173C523.774 33.9221 546.99 35.2676 574.318 30.0791" stroke="#386BF6" stroke-width="2.00325"/>
<defs>
<linearGradient id="paint0_linear_183_2360" x1="300.554" y1="16.6294" x2="300.554" y2="178.589" gradientUnits="userSpaceOnUse">
<stop stop-color="#386BF6" stop-opacity="0.54"/>
<stop offset="1" stop-color="#386BF6" stop-opacity="0"/>
</linearGradient>
</defs>
</svg>
